# xmcd CD database file
#
# Track frame offsets:
#	150
#	12666
#	34257
#	54618
#	71419
#	87380
#	98451
#	109287
#	129348
#	146192
#	162763
#
# Disc length: 2345 seconds
#
# Revision: 3
# Processed by: cddbd v1.5.1PL2 Copyright (c) Steve Scherf et al.
# Submitted via: CDex 1.51
#
DISCID=9509270b
DTITLE=Freddie King - Woman Across The River (Original Release 1973)
DYEAR=1996
DGENRE=Blues
TTITLE0=Freddie King - Woman Across The River
TTITLE1=Freddie King - (I'm Your) Hoochie Coochie Man
TTITLE2=Freddie King - The Danger Zone
TTITLE3=Freddie King - Boogie Man
TTITLE4=Freddie King - Leave My Woman Alone
TTITLE5=Freddie King - Just A Little Bit
TTITLE6=Freddie King - Yonder Wall
TTITLE7=Freddie King - Help Me Through The Day
TTITLE8=Freddie King - I'm Ready
TTITLE9=Freddie King - Trouble In Mind
TTITLE10=Freddie King - You Don't Have To Go
EXTD=YEAR: 1996
EXTT0=
EXTT1=
EXTT2=
EXTT3=
EXTT4=
EXTT5=
EXTT6=
EXTT7=
EXTT8=
EXTT9=
EXTT10=
PLAYORDER=
